<?xml version="1.0" standalone="no"?>
<!DOCTYPE svg PUBLIC "-//W3C//DTD SVG 20010904//EN"
 "http://www.w3.org/TR/2001/REC-SVG-20010904/DTD/svg10.dtd">
<svg version="1.0" xmlns="http://www.w3.org/2000/svg"
 width="192.000000pt" height="192.000000pt" viewBox="0 0 192.000000 192.000000"
 preserveAspectRatio="xMidYMid meet">

<g transform="translate(0.000000,192.000000) scale(0.100000,-0.100000)"
fill="#000000" stroke="none">
<path d="M0 960 l0 -960 960 0 960 0 0 960 0 960 -960 0 -960 0 0 -960z m842
775 c0 -5 -5 -11 -11 -13 -6 -2 -11 4 -11 13 0 9 5 15 11 13 6 -2 11 -8 11
-13z m202 -7 c28 -40 16 -95 -28 -130 -24 -20 -67 -23 -84 -6 -9 9 -16 7 -31
-6 -11 -10 -30 -16 -43 -14 -16 2 -37 -8 -58 -26 -29 -24 -41 -27 -76 -23 -38
4 -42 2 -58 -28 -19 -35 -59 -59 -85 -50 -10 3 -22 -5 -33 -25 -9 -17 -23 -30
-30 -30 -7 0 -19 -13 -26 -28 -12 -29 -43 -51 -77 -56 -20 -3 -20 -3 -30 -58
-8 -52 -49 -98 -86 -98 -24 0 -44 14 -95 66 -65 67 -76 93 -54 134 17 31 77
62 123 62 37 1 44 5 57 32 19 39 93 78 133 71 16 -3 27 -1 25 3 -39 88 -45
132 -18 132 6 0 22 -12 35 -26 23 -25 24 -25 50 -8 18 11 37 15 65 11 36 -5
43 -1 79 34 39 40 67 47 102 29 15 -9 21 -7 25 5 8 19 38 19 54 0 12 -14 17
-11 42 20 25 29 36 35 68 35 29 0 43 -6 54 -22z m93 -18 c5 -17 7 -18 20 -4
12 12 18 12 30 2 15 -12 56 -19 118 -18 27 0 28 -2 13 -14 -20 -15 -14 -26 13
-26 12 0 16 5 13 14 -3 8 -1 17 5 21 7 4 11 -5 11 -25 0 -25 -4 -30 -17 -27
-10 3 -30 8 -45 11 -17 4 -28 13 -28 22 0 14 -3 14 -15 4 -12 -10 -15 -9 -16
6 -1 15 -2 16 -6 3 -3 -13 -14 -15 -51 -11 -44 4 -49 2 -60 -22 -7 -16 -20
-26 -32 -26 -26 0 -25 15 1 41 16 16 18 23 9 29 -17 10 -5 40 16 40 9 0 18 -9
21 -20z m-127 -299 c0 -14 -18 -23 -30 -16 -6 4 -8 11 -5 16 8 12 35 12 35 0z
m534 -150 c3 -5 -1 -14 -8 -20 -16 -13 -32 2 -21 19 8 12 22 13 29 1z m-734
-54 c20 -10 34 -10 75 0 64 17 166 16 230 -1 35 -9 59 -10 79 -3 60 20 146
-29 146 -82 0 -18 11 -35 35 -54 20 -16 38 -42 44 -65 12 -43 13 -138 2 -167
-6 -15 -1 -26 21 -46 39 -37 37 -72 -6 -115 -36 -36 -55 -41 -87 -23 -16 8
-28 7 -52 -5 -18 -8 -63 -20 -100 -27 -58 -11 -70 -11 -78 2 -7 12 -9 12 -9
-2 0 -27 -43 -57 -105 -74 -48 -12 -75 -13 -145 -5 -208 25 -314 138 -314 335
0 79 22 140 70 190 16 17 30 41 31 55 7 77 92 123 163 87z m-380 -327 c-9 -6
-17 -5 -22 3 -9 15 14 29 27 16 6 -6 5 -13 -5 -19z m1200 -64 c0 -8 -7 -16
-15 -20 -15 -5 -21 14 -8 27 11 12 23 8 23 -7z m-840 -411 c0 -8 -7 -15 -15
-15 -16 0 -20 12 -8 23 11 12 23 8 23 -8z"/>
<path d="M740 1610 c0 -5 5 -10 10 -10 6 0 10 5 10 10 0 6 -4 10 -10 10 -5 0
-10 -4 -10 -10z"/>
<path d="M590 1550 c0 -5 5 -10 11 -10 5 0 7 5 4 10 -3 6 -8 10 -11 10 -2 0
-4 -4 -4 -10z"/>
<path d="M405 1421 c-3 -5 -1 -12 5 -16 5 -3 10 1 10 9 0 18 -6 21 -15 7z"/>
<path d="M221 1317 c-9 -12 -6 -18 15 -32 29 -19 48 -9 42 21 -4 23 -41 30
-57 11z"/>
<path d="M1090 1649 c0 -5 5 -7 10 -4 6 3 10 8 10 11 0 2 -4 4 -10 4 -5 0 -10
-5 -10 -11z"/>
<path d="M766 1147 c-7 -29 4 -69 18 -64 17 6 20 73 3 80 -10 4 -17 -2 -21
-16z"/>
<path d="M1252 1119 c-2 -28 1 -40 9 -37 23 8 35 37 23 55 -19 30 -29 24 -32
-18z"/>
<path d="M1181 939 c-2 -28 23 -51 50 -46 24 4 24 4 -3 6 -19 1 -29 9 -36 29
-6 15 -11 20 -11 11z"/>
<path d="M969 903 c25 -50 -5 -100 -53 -91 -14 3 -23 1 -20 -3 10 -16 54 -9
74 11 24 24 26 59 4 86 -15 18 -15 18 -5 -3z"/>
<path d="M1085 688 c11 -6 23 -16 27 -22 5 -8 8 -7 8 1 0 7 -9 17 -19 23 -27
14 -41 12 -16 -2z"/>
</g>
</svg>
